<?xml version="1.0" encoding="UTF-8"?>
<svg id="Layer_1" xmlns="http://www.w3.org/2000/svg" version="1.1" viewBox="0 0 400 400">
  <!-- Generator: Adobe Illustrator 29.1.0, SVG Export Plug-In . SVG Version: 2.1.0 Build 142)  -->
  <defs>
    <style>
      .st0 {
        stroke: #a0aec0;
        stroke-dasharray: 10 5;
      }

      .st0, .st1 {
        stroke-width: 4px;
      }

      .st0, .st2 {
        fill: none;
      }

      .st1 {
        fill: #4299e1;
      }

      .st1, .st2, .st3 {
        stroke: #2b6cb0;
      }

      .st4 {
        fill: #9ae6b4;
        stroke-width: 3px;
      }

      .st4, .st5 {
        stroke: #38a169;
      }

      .st6, .st7 {
        isolation: isolate;
      }

      .st2, .st3 {
        stroke-miterlimit: 3.2;
        stroke-width: 1.6px;
      }

      .st8 {
        fill: #fc8181;
      }

      .st7 {
        font-family: Arial-BoldMT, Arial;
        font-size: 30px;
        font-weight: 700;
      }

      .st7, .st5 {
        fill: #fff;
      }

      .st3 {
        fill: #ebf4ff;
      }

      .st5 {
        stroke-miterlimit: 2.4;
        stroke-width: .9px;
      }

      .st9 {
        fill: #2a3647;
        stroke: #4a5568;
        stroke-width: 8px;
      }

      .st10 {
        fill: #2b6cb0;
      }
    </style>
  </defs>
  <polygon class="st9" points="200 10 370 105 370 295 200 390 30 295 30 105 200 10"/>
  <line class="st0" x1="195.9" y1="175.7" x2="137.6" y2="102.7"/>
  <line class="st0" x1="205.9" y1="175.7" x2="263.7" y2="105"/>
  <line class="st0" x1="195.9" y1="185.7" x2="100.6" y2="200.3"/>
  <line class="st0" x1="205.9" y1="185.7" x2="299.7" y2="197.6"/>
  <line class="st0" x1="195.9" y1="185.7" x2="153" y2="271.7"/>
  <line class="st0" x1="205.9" y1="185.7" x2="245.8" y2="273.7"/>
  <g>
    <circle class="st8" cx="167.9" cy="140.7" r="8">
      <animate accumulate="none" additive="replace" attributeName="cx" calcMode="linear" dur="2s" fill="remove" repeatCount="indefinite" restart="always" values="195.9;153.1"/>
      <animate accumulate="none" additive="replace" attributeName="cy" calcMode="linear" dur="2s" fill="remove" repeatCount="indefinite" restart="always" values="175.7;118.9"/>
    </circle>
    <circle class="st8" cx="232.9" cy="140.7" r="8">
      <animate accumulate="none" additive="replace" attributeName="cx" calcMode="linear" dur="1.8s" fill="remove" repeatCount="indefinite" restart="always" values="205.9;250.9"/>
      <animate accumulate="none" additive="replace" attributeName="cy" calcMode="linear" dur="1.8s" fill="remove" repeatCount="indefinite" restart="always" values="175.7;120.7"/>
    </circle>
    <circle class="st8" cx="150.9" cy="190.7" r="8">
      <animate accumulate="none" additive="replace" attributeName="cx" calcMode="linear" dur="1.5s" fill="remove" repeatCount="indefinite" restart="always" values="195.9;125.9"/>
      <animate accumulate="none" additive="replace" attributeName="cy" calcMode="linear" dur="1.5s" fill="remove" repeatCount="indefinite" restart="always" values="185.7;196.4"/>
    </circle>
    <circle class="st8" cx="250.9" cy="190.7" r="8">
      <animate accumulate="none" additive="replace" attributeName="cx" calcMode="linear" dur="1.7s" fill="remove" repeatCount="indefinite" restart="always" values="205.9;276.6"/>
      <animate accumulate="none" additive="replace" attributeName="cy" calcMode="linear" dur="1.7s" fill="remove" repeatCount="indefinite" restart="always" values="185.7;194.7"/>
    </circle>
    <circle class="st8" cx="167.9" cy="240.7" r="8">
      <animate accumulate="none" additive="replace" attributeName="cx" calcMode="linear" dur="2.2s" fill="remove" repeatCount="indefinite" restart="always" values="195.9;149.1"/>
      <animate accumulate="none" additive="replace" attributeName="cy" calcMode="linear" dur="2.2s" fill="remove" repeatCount="indefinite" restart="always" values="185.7;279.5"/>
    </circle>
    <circle class="st8" cx="232.9" cy="240.7" r="8">
      <animate accumulate="none" additive="replace" attributeName="cx" calcMode="linear" dur="1.9s" fill="remove" repeatCount="indefinite" restart="always" values="205.9;249.4"/>
      <animate accumulate="none" additive="replace" attributeName="cy" calcMode="linear" dur="1.9s" fill="remove" repeatCount="indefinite" restart="always" values="185.7;277.5"/>
    </circle>
  </g>
  <circle class="st1" cx="200.9" cy="180.7" r="50"/>
  <g class="st6">
    <text class="st7" transform="translate(117.4 332.7)"><tspan x="0" y="0">multideploy</tspan></text>
  </g>
  <g>
    <path class="st3" d="M189.1,155.4h25.3l12.7,12.7v38h-50.7v-50.7h12.7Z"/>
    <path class="st10" d="M214.5,155.4v12.7h12.7l-12.7-12.7Z"/>
    <line class="st2" x1="189.1" y1="174.4" x2="214.5" y2="174.4"/>
    <line class="st2" x1="189.1" y1="187" x2="214.5" y2="187"/>
  </g>
  <circle class="st4" cx="135.9" cy="100.7" r="25"/>
  <path class="st5" d="M124.3,91.4h9.3l2.8,2.8h11.1v15.7h-23.1v-18.5Z"/>
  <circle class="st4" cx="100.6" cy="200.3" r="25"/>
  <path class="st5" d="M89,191h9.3l2.8,2.8h11.1v15.7h-23.1v-18.5Z"/>
  <circle class="st4" cx="265.9" cy="100.7" r="25"/>
  <path class="st5" d="M254.3,91.4h9.3l2.8,2.8h11.1v15.7h-23.1v-18.5Z"/>
  <circle class="st4" cx="301.2" cy="197.8" r="25"/>
  <path class="st5" d="M289.6,188.6h9.3l2.8,2.8h11.1v15.7h-23.1v-18.5Z"/>
  <circle class="st4" cx="153" cy="271.7" r="25"/>
  <path class="st5" d="M141.4,262.5h9.3l2.8,2.8h11.1v15.7h-23.1v-18.5Z"/>
  <circle class="st4" cx="245.8" cy="273.7" r="25"/>
  <path class="st5" d="M234.2,264.4h9.3l2.8,2.8h11.1v15.7h-23.1v-18.5Z"/>
</svg>